/* XPM */
static char *b20f752f3be84280fc1bf54bdadb3764WlXk9t08biYYsFy5[] = {
/* columns rows colors chars-per-pixel */
"32 32 2 1 ",
"  c black",
". c #056321",
/* pixels */
"          .           .         ",
"          .           .         ",
"         .            .....     ",
"         .               ....   ",
".....    .               .   ...",
"     .......            .       ",
"        .   .          ..       ",
"        .    ..        .        ",
"       .       .       .        ",
"      . .       ..    .         ",
"     .  ..        .   .         ",
"    .     .        ....         ",
"   ..      .           ...      ",
"  .         .             ..    ",
"..           .              . ..",
"              .            ...  ",
"               .          .     ",
"                .       ..      ",
"                .      .        ",
"                 .   ..         ",
"                 ....           ",
"       ..........               ",
"     ..       .                 ",
".....         .               ..",
"             . ...           .  ",
"             .    ..        .   ",
"            .       ...    .    ",
"            .          ....     ",
"            .           .       ",
"           .           .        ",
"           .          .         ",
"          .           .         "
};
