/* XPM */
static char *_1187a9c2a2b4554b5cd3e13de721d40042wUlXfimRMpExu[] = {
/* columns rows colors chars-per-pixel */
"32 32 2 1 ",
"  c None",
". c #87FFF5",
/* pixels */
"                                ",
"                                ",
"                   .            ",
"                  ....          ",
"                 .. ....        ",
"                ..    ...       ",
"               ..       ..      ",
"              ..         ..     ",
"              ..          ..    ",
"             ..             ..  ",
"            ..               .. ",
"           ..                 . ",
"          ..     ..........   . ",
"         ..      ........    .. ",
"        ..      .......    ..   ",
"       ..      ......     ...   ",
"      ..       ....      ...    ",
"     ..        ....     ...     ",
"    ..         ...     ...      ",
"   ..       ......    ...       ",
"  ..      ........   ....       ",
"  ..    ..........   ...        ",
"  ...   ..........  ...         ",
"   ...             ...          ",
"    ...           ...           ",
"     ....        ....           ",
"      ...        ...            ",
"       ...      ...             ",
"        ..     ...              ",
"         ..   ...               ",
"          .. ...                ",
"          ....                  "
};
