/* XPM */
static char *_300cc12c187496cb402184dc2e56b50D4EUc66uWYuOkH3j[] = {
/* columns rows colors chars-per-pixel */
"32 32 10 1 ",
"  c None",
". c #3E3E3F",
"X c #8F1010",
"o c #8D7F7F",
"O c #75FF00",
"+ c #00FF6F",
"@ c #B98920",
"# c #A257F0",
"$ c #00FFB5",
"% c #FFF8A4",
/* pixels */
"                                ",
"            %%@@@@@%            ",
"            %@@@@@@@%           ",
"            %@@@@@@@@%          ",
"           %XXXXXXXXX%          ",
"        %%%%@@@@@@@@@%%%        ",
"        %@@@@@@@@@@@@@@@%       ",
"        %   %ooooooo$%%%%       ",
"            $ooOoooo$           ",
"           $ooo+oo+oo$$         ",
"          $ooooooooooo$         ",
"          $ooooooooOoo          ",
"           $ooo++O+oo$$         ",
"            $$ooooo$$           ",
"             $$...$$            ",
"          $$$$.....$            ",
"         $ooooooooooo$          ",
"         $...O....O..$$         ",
"        $ooooooooooooo$         ",
"        oooooooooooooooo$$      ",
"       ......O....O......$      ",
"      $oooooooooooooooooo$      ",
"      oooooooooooooo$oooo##     ",
"      .......O....O.$$...##     ",
"      oooooooooooooo$ $ ###     ",
"      oooo$ooooooooo$    ##     ",
"      ....$..O....O.    ###     ",
"       ooo$ooooooooo    ###     ",
"        $$$ooooooooo$     #     ",
"          $.........$     #     ",
"          $$........$     #     ",
"            ...$....            "
};
