/* XPM */
static char *_3e4be03a6d143b7fa36687a58a0fe4duKFFUi9MaQVDsXdC[] = {
/* columns rows colors chars-per-pixel */
"32 32 2 1 ",
"  c #E600FF",
". c #8ECFFF",
/* pixels */
"                                ",
"                                ",
"                                ",
".............................   ",
".............................   ",
".............................   ",
"                          ...   ",
"                          ...   ",
"                          ...   ",
"   ....................   ...   ",
"   ....................   ...   ",
"   ....................   ...   ",
"   ...              ...   ...   ",
"   ...              ...   ...   ",
"   ...              ...   ...   ",
"   ...   ........   ...   ...   ",
"   ...   ...   ..   ...   ...   ",
"   ...   ...        ...   ...   ",
"   ...   ...        ...   ...   ",
"   ...   ...        ...   ...   ",
"   ...   ..............   ...   ",
"   ...   ..............   ...   ",
"   ...   ..............   ...   ",
"   ...                    ...   ",
"   ...                    ...   ",
"   ...                    ...   ",
"   ..........................   ",
"   ..........................   ",
"   ..........................   ",
"                                ",
"                                ",
"                                "
};
