/* XPM */
static char *_f19209356174e39c48da3bd4c9d0f44rY0sxtjp4cv1iimC[] = {
/* columns rows colors chars-per-pixel */
"32 32 3 1 ",
"  c black",
". c #F3D100",
"X c #A257F0",
/* pixels */
"XXXXXXXXXXXXXXXXXXXXXXXXXXXXXXXX",
"XXXXXXXXXXXXXXXXXXXXXXXXXXXXXXXX",
"XXXXXXXXXXXXXXXXXXXXXXXXXXXXXXXX",
"XXX X      .       .       X XXX",
"XXXXXX    ...     ...     XXXXXX",
"XXX X X    . .   . .     X X XXX",
"XXX  XXX    ... ...     XXX  XXX",
"XXX   X X    . . .     X X   XXX",
"XXX .  XXX    ...     XXX  . XXX",
"XXX...  X X    .     X X  ...XXX",
"XXX . .  XXX        XXX  . . XXX",
"XXX  ...  X X      X X  ...  XXX",
"XXX   . .  XXX    XXX  . .   XXX",
"XXX    ...  X X  X X  ...    XXX",
"XXX     . .  XXXXXX  . .     XXX",
"XXX      ...  XXXX  ...      XXX",
"XXX     . .   XXXX   . .     XXX",
"XXX    ...   XXXX X   ...    XXX",
"XXX   . .   X X  XXX   . .   XXX",
"XXX  ...   XXX    X X   ...  XXX",
"XXX . .   X X   .  XXX   . . XXX",
"XXX...   XXX   ...  X X   ...XXX",
"XXX .   X X   . . .  XXX   . XXX",
"XXX    XXX   ... ...  X X    XXX",
"XXX   X X   . .   . .  XXX   XXX",
"XXX  XXX   ...     ...  X X  XXX",
"XXX X X   . .       . .  XXX XXX",
"XXXXXX   ...         ...  XXXXXX",
"XXX X     .           .    X XXX",
"XXXXXXXXXXXXXXXXXXXXXXXXXXXXXXXX",
"XXXXXXXXXXXXXXXXXXXXXXXXXXXXXXXX",
"XXXXXXXXXXXXXXXXXXXXXXXXXXXXXXXX"
};
